<svg id="eV3r5l9Ymd11" xmlns="http://www.w3.org/2000/svg" xmlns:xlink="http://www.w3.org/1999/xlink" viewBox="0 0 16 16" shape-rendering="geometricPrecision" text-rendering="geometricPrecision" project-id="248373e26597426c88a50e70ef8d1160" export-id="8b4b2a7a9bbd4a329340630bc1698819" cached="false"><rect width="16" height="16" rx="5" ry="5" stroke-width="0"/><path d="M4.35355,6.64645c.19527.19526.19527.51184,0,.7071L2.20711,9.5l2.14644,2.1464c.19527.1953.19527.5119,0,.7072s-.51184.1952-.7071,0l-2.5-2.50005c-.195266-.19526-.195266-.51184,0-.7071l2.5-2.5c.19526-.19527.51184-.19527.7071,0Zm10.50005,2.5l-2.5-2.5c-.1953-.19527-.5119-.19527-.7072,0s-.1952.51184,0,.7071L13.7929,9.5l-2.1465,2.1464c-.1952.1953-.1952.5119,0,.7072s.5119.1952.7072,0l2.5-2.50005c.1952-.19526.1952-.51184,0-.7071Z" transform="matrix(0.8 0 0 0.8 1.6 0.400001)" fill="#3bcf83"/><g transform="translate(6.13706 11.63)"><path d="M8.867987,-6.375625v.832032h-3.427734v-.832032ZM6.600409,-7.91664h1.083985v6.310547q0,.322265.099609.486328t.257812.216797.339844.052734q.134766,0,.28418-.026367t.225586-.043946l.005859.884766q-.128906.041016-.336914.079102t-.500976.038086q-.398438,0-.732422-.158204t-.530274-.530273-.196289-1.004883Z" transform="translate(-5.26 0.237031)" fill="#3bcf83" stroke-width="0"/></g></svg>
